<svg id="Layer_1" data-name="Layer 1" xmlns="http://www.w3.org/2000/svg" viewBox="0 0 371 196"><defs><style>.cls-1{fill:#fff;stroke:#9e9e9e;stroke-miterlimit:10;}.cls-2{fill:#26a6d1;}</style></defs><title>amex</title><rect class="cls-1" x="0.5" y="0.5" width="370" height="195" rx="24"/><path id="amex" class="cls-2" d="M81.6,65,50,134.92H87.83l4.69-11.15h10.72l4.69,11.15h41.64v-8.51l3.71,8.51h21.54l3.71-8.69v8.69h86.6l10.53-10.86,9.86,10.86L330,135l-31.7-34.86L330,65H286.21L276,75.65,266.41,65H172.2L164.11,83,155.83,65H118.08v8.22L113.88,65Zm7.32,9.93h18.44l21,47.42V74.92h20.2l16.19,34,14.92-34h20.1V125.1H187.5l-.1-39.32L169.57,125.1H158.63L140.7,85.78V125.1H115.54l-4.77-11.25H85l-4.76,11.24H66.76Zm122,0h49.73l15.21,16.43,15.7-16.43h15.21l-23.11,25.22,23.11,24.93h-15.9l-15.21-16.62-15.78,16.62h-49V74.92Zm-113,8.49-8.49,20h17Zm125.31,1.9v9.16h27.13v10.21H223.2v10h30.43L267.77,100,254.23,85.3h-31Z" transform="translate(-2.31 -1.7)"/></svg>