<svg id="Layer_1" data-name="Layer 1" xmlns="http://www.w3.org/2000/svg" viewBox="0 0 371 196"><defs><style>.cls-1{fill:#fff;stroke:#9e9e9e;stroke-miterlimit:10;}.cls-2{fill:#26a6d1;}.cls-3{fill:#e2574c;}</style></defs><title>maestro</title><rect class="cls-1" x="0.5" y="0.5" width="370" height="195" rx="24"/><g id="maestro"><path class="cls-2" d="M212.46,100a56.23,56.23,0,1,1-56.23-56.24A56.23,56.23,0,0,1,212.46,100Z" transform="translate(-2.31 -1.7)"/><path class="cls-3" d="M223.76,43.76A55.93,55.93,0,0,0,190.16,55h0c1.85,1.78,3.88,3,5.45,5.09l-11.7.18a59.16,59.16,0,0,0-5.08,6H199.5a52.33,52.33,0,0,1,4.34,5.6H175.13a55.83,55.83,0,0,0-2.87,5.61h34.85a49,49,0,0,1,2.42,5.43H170.19a55.86,55.86,0,0,0-1.56,6h42.54c.42,1.94.74,3.74,1,5.58H167.79a54.93,54.93,0,0,0-.28,5.62h44.94a50.1,50.1,0,0,1-.34,5.63H167.79q.28,2.85.84,5.62h42.48c-.44,1.82-1,3.66-1.58,5.56H170.06a56.3,56.3,0,0,0,2.12,5.61h34.93a51.52,51.52,0,0,1-3.28,5.6H175a55.33,55.33,0,0,0,3.75,5.65l20.72.31c-1.76,2.12-4,3.39-6.09,5.25.11.09-3.31,0-10-.12a56.23,56.23,0,1,0,40.38-95.35Z" transform="translate(-2.31 -1.7)"/></g></svg>