<svg id="Layer_1" data-name="Layer 1" xmlns="http://www.w3.org/2000/svg" viewBox="0 0 371 196"><defs><style>.cls-1{fill:#fff;stroke:#9e9e9e;stroke-miterlimit:10;}.cls-2{fill:#139ad6;}.cls-3{fill:#263b80;}.cls-4{fill:#232c65;}</style></defs><title>paypal</title><rect class="cls-1" x="0.5" y="0.5" width="370" height="195" rx="24"/><g id="paypal"><path class="cls-2" d="M266.44,82.89H251.33a3,3,0,0,0-2.22,1.78l-6.22,39.11a1.17,1.17,0,0,0,1.33,1.33h8a1.18,1.18,0,0,0,1.34-1.33l1.77-11.11a2,2,0,0,1,2.23-1.78h4.88q15.35,0,17.34-14.67A11.65,11.65,0,0,0,278,86.44c-2.67-2.22-6.67-3.55-11.56-3.55m1.78,14.67c-.89,5.33-4.89,5.33-8.89,5.33h-2.66l1.77-10.22c0-.45.45-.89,1.34-.89h.89c2.66,0,5.33,0,6.66,1.78.89.44.89,1.77.89,4" transform="translate(-2.31 -1.7)"/><path class="cls-3" d="M157.56,82.89H142.44a3,3,0,0,0-2.22,1.78L134,123.78a1.17,1.17,0,0,0,1.33,1.33h7.11a3,3,0,0,0,2.23-1.78l1.77-10.66a2,2,0,0,1,2.23-1.78h4.89q15.33,0,17.33-14.67a11.65,11.65,0,0,0-1.78-9.78c-2.67-2.22-6.22-3.55-11.55-3.55m1.77,14.67c-.89,5.33-4.89,5.33-8.89,5.33h-2.22L150,92.67c0-.45.44-.89,1.33-.89h.89c2.67,0,5.34,0,6.67,1.78.44.44.89,1.77.44,4" transform="translate(-2.31 -1.7)"/><path class="cls-3" d="M203.33,97.11h-7.11c-.44,0-1.33.45-1.33.89l-.45,2.22-.44-.89c-1.78-2.22-4.89-3.11-8.44-3.11-8,0-15.12,6.22-16.45,14.67A13.26,13.26,0,0,0,171.78,122c2.22,2.67,5.33,3.56,9.33,3.56a14.19,14.19,0,0,0,10.22-4l-.44,2.22a1.17,1.17,0,0,0,1.33,1.33h6.67a2.94,2.94,0,0,0,2.22-1.78l4-24.89c-.44-.44-1.33-1.33-1.78-1.33m-10.22,14.22c-.89,4-4,7.11-8.44,7.11a7.09,7.09,0,0,1-4.89-1.77,9.49,9.49,0,0,1-1.34-5.34,8.14,8.14,0,0,1,8-7.11,8.06,8.06,0,0,1,4.89,1.78,7.73,7.73,0,0,1,1.78,5.33" transform="translate(-2.31 -1.7)"/><path class="cls-2" d="M311.78,97.11h-7.11c-.45,0-1.34.45-1.34.89l-.44,2.22-.45-.89c-1.77-2.22-4.88-3.11-8.44-3.11-8,0-15.11,6.22-16.44,14.67A13.25,13.25,0,0,0,280.22,122c2.22,2.67,5.34,3.56,9.34,3.56a14.22,14.22,0,0,0,10.22-4l-.45,2.22a1.18,1.18,0,0,0,1.34,1.33h6.66a3,3,0,0,0,2.23-1.78l4-24.89c-.45-.44-.89-1.33-1.78-1.33m-10.22,14.22c-.89,4-4,7.11-8.45,7.11a7.11,7.11,0,0,1-4.89-1.77,9.49,9.49,0,0,1-1.33-5.34A7.93,7.93,0,0,1,299.78,106a5.1,5.1,0,0,1,1.78,5.33" transform="translate(-2.31 -1.7)"/><path class="cls-3" d="M242,97.11h-7.56a2.31,2.31,0,0,0-1.77.89l-9.78,15.11-4.45-14.22a2,2,0,0,0-2.22-1.33h-7.11c-.89,0-1.33.88-1.33,1.77l8,23.56-7.56,10.67c-.44.88,0,2.22.89,2.22h7.11a2.32,2.32,0,0,0,1.78-.89l24.44-35.11c1.34-1.34.45-2.67-.44-2.67" transform="translate(-2.31 -1.7)"/><path class="cls-2" d="M320.22,84.22l-6.22,40a1.18,1.18,0,0,0,1.33,1.34h6.23a3,3,0,0,0,2.22-1.78L330,84.67a1.18,1.18,0,0,0-1.33-1.34h-7.11c-.45-.44-.89,0-1.34.89" transform="translate(-2.31 -1.7)"/><path class="cls-3" d="M101.11,69.56C98,66,92.22,64.22,84.22,64.22H62a3.82,3.82,0,0,0-3.11,2.67L50,125.11a2,2,0,0,0,1.78,2.22H65.56l3.55-21.77v.88a3.82,3.82,0,0,1,3.11-2.66h6.67c12.89,0,22.67-5.34,25.78-20V82.44h0c.44-5.77-.45-9.33-3.56-12.88" transform="translate(-2.31 -1.7)"/><path class="cls-2" d="M104.22,82.44h0v1.34c-3.11,15.11-12.89,20-25.78,20H71.78a3.79,3.79,0,0,0-3.11,2.66l-4.45,27.12A1.63,1.63,0,0,0,66,135.33H77.56a2.49,2.49,0,0,0,2.66-2.22v-.44l2.22-13.78V118a2.49,2.49,0,0,1,2.67-2.22h1.78c11.11,0,20-4.45,22.22-17.78.89-5.33.45-10.22-2.22-13.33a4.58,4.58,0,0,0-2.67-2.23" transform="translate(-2.31 -1.7)"/><path class="cls-4" d="M101.11,81.11c-.44,0-.89-.44-1.33-.44a1.63,1.63,0,0,1-1.34-.45,23.62,23.62,0,0,0-5.77-.44H75.33a1.64,1.64,0,0,0-1.33.44,2.45,2.45,0,0,0-1.33,2.22l-3.56,23.12v.88a3.82,3.82,0,0,1,3.11-2.66h6.67c12.89,0,22.67-5.34,25.78-20a1.66,1.66,0,0,1,.44-1.34c-.89-.44-1.33-.88-2.22-.88-1.33-.45-1.33-.45-1.78-.45" transform="translate(-2.31 -1.7)"/></g></svg>