<svg id="Layer_1" data-name="Layer 1" xmlns="http://www.w3.org/2000/svg" viewBox="0 0 371 196"><defs><style>.cls-1{fill:#fff;stroke:#9e9e9e;stroke-miterlimit:10;}.cls-2{fill:#54c1f0;}.cls-3{fill:#233266;}</style></defs><title>paytm</title><rect class="cls-1" x="0.5" y="0.5" width="370" height="195" rx="24"/><g id="paytm"><g id="g460"><path id="path462" class="cls-2" d="M334,81.36a19.32,19.32,0,0,0-18.23-12.93h-.18a19.27,19.27,0,0,0-13.93,5.94,19.25,19.25,0,0,0-13.92-5.94h-.18A19.27,19.27,0,0,0,275,73.11V71.63A2.84,2.84,0,0,0,272.15,69H259.23a2.86,2.86,0,0,0-2.86,2.86V142a2.86,2.86,0,0,0,2.86,2.87h12.92a2.86,2.86,0,0,0,2.82-2.47V92.05c0-.18,0-.34,0-.5a4.72,4.72,0,0,1,4.46-4.33h2.38a4.94,4.94,0,0,1,2.73,1.06,4.72,4.72,0,0,1,1.75,3.77l.05,50.14a2.87,2.87,0,0,0,2.86,2.87h12.92a2.86,2.86,0,0,0,2.84-2.73V92a4.72,4.72,0,0,1,2.1-4,5.25,5.25,0,0,1,2.38-.8h2.38A4.72,4.72,0,0,1,316.31,92l.05,50.07a2.86,2.86,0,0,0,2.86,2.87h12.92a2.86,2.86,0,0,0,2.86-2.87V88.2a17.92,17.92,0,0,0-1-6.84" transform="translate(-2.31 -1.7)"/></g><g id="g464"><path id="path466" class="cls-2" d="M246.52,69.17h-7.39v-12h0v0a2.55,2.55,0,0,0-3.1-2.55c-8.2,2.25-6.55,13.6-21.52,14.56h-1.45a2.51,2.51,0,0,0-.62.08h0A2.86,2.86,0,0,0,210.2,72V85a2.86,2.86,0,0,0,2.86,2.85h7.8v54.81a2.83,2.83,0,0,0,2.83,2.83h12.77a2.83,2.83,0,0,0,2.83-2.83V87.81h7.24A2.86,2.86,0,0,0,249.38,85V72a2.87,2.87,0,0,0-2.86-2.86" transform="translate(-2.31 -1.7)"/></g><g id="g468"><path id="path470" class="cls-3" d="M200,69.17H187.1A2.87,2.87,0,0,0,184.24,72V98.76a3,3,0,0,1-3,3h-5.41a3,3,0,0,1-3-3L172.72,72a2.86,2.86,0,0,0-2.85-2.86H156.94A2.87,2.87,0,0,0,154.08,72v29.29c0,11.13,7.94,19.06,19.07,19.06,0,0,8.35,0,8.61.05a3,3,0,0,1,0,6l-.22,0-18.9.07a2.86,2.86,0,0,0-2.86,2.85v12.92a2.86,2.86,0,0,0,2.86,2.86h21.13c11.14,0,19.07-7.93,19.07-19.06V72A2.87,2.87,0,0,0,200,69.17" transform="translate(-2.31 -1.7)"/></g><g id="g472"><path id="path474" class="cls-3" d="M74.92,92.86v8a3,3,0,0,1-3,3h-8.2v-16h8.2a3,3,0,0,1,3,3Zm1.13-23.69H47.8A2.8,2.8,0,0,0,45,72V84.64s0,0,0,.07,0,.12,0,.18V142.2a2.79,2.79,0,0,0,2.61,2.87H60.78a2.86,2.86,0,0,0,2.86-2.86l0-19.64H76.05c10.35,0,17.56-7.18,17.56-17.57V86.77c0-10.39-7.21-17.6-17.56-17.6" transform="translate(-2.31 -1.7)"/></g><g id="g476"><path id="path478" class="cls-3" d="M128.54,123.2v2a3.57,3.57,0,0,1,0,.47,2.58,2.58,0,0,1-.13.42,3,3,0,0,1-2.87,2h-5.38a3,3,0,0,1-3.05-2.84v-9h0v-2a2.93,2.93,0,0,1,3-2.82h5.38a2.94,2.94,0,0,1,3,2.84Zm-2-53.95H108.55a2.77,2.77,0,0,0-2.86,2.68V84.05a3,3,0,0,0,3,2.84H125.8a3,3,0,0,1,2.57,2.73v1.67A2.87,2.87,0,0,1,125.88,94h-8.46c-11.25,0-19.26,7.47-19.26,18v15c0,10.43,6.89,17.85,18,17.85h23.44a7.37,7.37,0,0,0,7.62-7.1v-49c0-11.89-6.13-19.39-20.78-19.39" transform="translate(-2.31 -1.7)"/></g></g></svg>