<svg id="Layer_1" data-name="Layer 1" xmlns="http://www.w3.org/2000/svg" viewBox="0 0 371 196"><defs><style>.cls-1{fill:#fff;stroke:#9e9e9e;stroke-miterlimit:10;}.cls-2{fill:#3d3d3c;}.cls-3{fill:#70706e;}.cls-4{fill:#098041;}.cls-5{fill:#e97626;}</style></defs><title>upi</title><rect class="cls-1" x="0.5" y="0.5" width="370" height="195" rx="24"/><path class="cls-2" d="M52.25,135.5h2.09l-2,8.15a3.45,3.45,0,0,0,.17,2.73,2.47,2.47,0,0,0,2.22.89,4,4,0,0,0,2.67-.89,5.18,5.18,0,0,0,1.46-2.73l2-8.15H63l-2,8.35a7.18,7.18,0,0,1-2.33,4.06,6.74,6.74,0,0,1-4.36,1.36c-1.8,0-3-.43-3.69-1.33s-.8-2.26-.37-4.06Z" transform="translate(-2.31 -1.7)"/><path class="cls-2" d="M62.69,148.9,66,135l6.32,8.19c.17.23.33.46.5.73s.33.57.53.9l2.23-9.28h2l-3.32,13.9-6.46-8.35-.5-.7a3.91,3.91,0,0,1-.4-.79l-2.23,9.31h-2Z" transform="translate(-2.31 -1.7)"/><path class="cls-2" d="M77.4,148.9l3.19-13.4h2.13l-3.19,13.4Z" transform="translate(-2.31 -1.7)"/><path class="cls-2" d="M82.55,148.9l3.2-13.4H93l-.43,1.86H87.44l-.79,3.33H91.8l-.46,1.89H86.18l-1.5,6.29H82.55Z" transform="translate(-2.31 -1.7)"/><path class="cls-2" d="M92.2,148.9l3.19-13.4h2.13l-3.19,13.4Z" transform="translate(-2.31 -1.7)"/><path class="cls-2" d="M97.36,148.9l3.19-13.4h7.29l-.44,1.86h-5.15l-.8,3.36h5.16l-.47,1.9H101l-1,4.32h5.16l-.47,2Z" transform="translate(-2.31 -1.7)"/><path class="cls-2" d="M107.1,148.9l3.2-13.4h2.86a16.49,16.49,0,0,1,3.86.3,4,4,0,0,1,1.76,1A4.29,4.29,0,0,1,120,139a8.05,8.05,0,0,1-.17,3.16,10.34,10.34,0,0,1-1.33,3.16,7.64,7.64,0,0,1-2.26,2.27,6.67,6.67,0,0,1-2.2,1,14.78,14.78,0,0,1-3.46.3H107.1Zm2.6-2h1.8a10.09,10.09,0,0,0,2.26-.2,4.27,4.27,0,0,0,1.43-.67,5.34,5.34,0,0,0,1.5-1.63,7.21,7.21,0,0,0,.89-2.26,5.93,5.93,0,0,0,.17-2.23,3.06,3.06,0,0,0-.73-1.63,2.25,2.25,0,0,0-1.17-.66,9.48,9.48,0,0,0-2.36-.2H112Z" transform="translate(-2.31 -1.7)"/><path class="cls-2" d="M129.56,142.88l-1.43,6h-2l3.2-13.4h3.22a9.89,9.89,0,0,1,2.07.16,2,2,0,0,1,1,.54,2.19,2.19,0,0,1,.66,1.26,4.44,4.44,0,0,1-.06,1.73,5.55,5.55,0,0,1-.77,1.76,4,4,0,0,1-2.56,1.8,10.84,10.84,0,0,1-2.13.17h-1.23Zm.57-1.79h.53a5.5,5.5,0,0,0,2.46-.4,2.07,2.07,0,0,0,.93-1.4,1.44,1.44,0,0,0-.26-1.5,3.76,3.76,0,0,0-2.2-.43h-.53Z" transform="translate(-2.31 -1.7)"/><path class="cls-2" d="M143.47,148.9l-.67-3.46h-5.19l-2.33,3.46h-2.23L142.7,135l3,13.94Zm-4.59-5.29h3.62l-.6-3.06a4.49,4.49,0,0,1-.06-.66,5.56,5.56,0,0,1,0-.83,5.92,5.92,0,0,1-.43.83,7.27,7.27,0,0,1-.4.7Z" transform="translate(-2.31 -1.7)"/><path class="cls-2" d="M148.76,148.9l1.46-6.12-2.66-7.25h2.23l1.66,4.56c0,.13.07.26.13.46s.1.4.17.6l.4-.6c.13-.2.27-.36.4-.53l3.89-4.49h2.13l-6.22,7.22-1.46,6.12h-2.13Z" transform="translate(-2.31 -1.7)"/><path class="cls-2" d="M169,142.28a8,8,0,0,1,.1-.86c0-.4.06-.7.1-1-.14.3-.27.6-.44.94a6.61,6.61,0,0,1-.6.93l-5.12,7.15-1.66-7.29c-.07-.3-.13-.6-.17-.86a7.91,7.91,0,0,1-.06-.83c-.07.26-.17.56-.27.9a7.32,7.32,0,0,1-.4,1l-3,6.59h-2L162,135l1.83,8.45a4.43,4.43,0,0,1,.1.67c0,.3.1.7.17,1.16.23-.39.53-.86.93-1.46a2.74,2.74,0,0,0,.23-.37L171,135l-.2,14h-2Z" transform="translate(-2.31 -1.7)"/><path class="cls-2" d="M172.54,148.9l3.2-13.4H183l-.43,1.86h-5.16l-.8,3.36h5.16l-.46,1.9h-5.16l-1,4.32h5.15l-.46,2Z" transform="translate(-2.31 -1.7)"/><path class="cls-2" d="M182.26,148.9,185.58,135l6.32,8.19a8.46,8.46,0,0,1,.5.73c.17.27.34.57.54.9l2.23-9.28h2l-3.33,13.9-6.45-8.35-.5-.7a3.45,3.45,0,0,1-.4-.79l-2.23,9.31h-2Z" transform="translate(-2.31 -1.7)"/><path class="cls-2" d="M203.91,137.33l-2.76,11.54H199l2.77-11.54h-3.46l.43-1.87h9.05l-.44,1.87Z" transform="translate(-2.31 -1.7)"/><path class="cls-2" d="M206.14,146.21l1.9-.8a1.74,1.74,0,0,0,.57,1.36,2.31,2.31,0,0,0,1.53.47,2.57,2.57,0,0,0,1.63-.53,2.43,2.43,0,0,0,.89-1.43c.2-.8-.26-1.5-1.39-2.1a3,3,0,0,0-.37-.2,6.36,6.36,0,0,1-2.39-2,2.82,2.82,0,0,1-.2-2.13,4.59,4.59,0,0,1,1.73-2.66,5,5,0,0,1,3.09-1,4.27,4.27,0,0,1,2.3.56,2.22,2.22,0,0,1,1,1.63l-1.86.87a2,2,0,0,0-.64-.93,1.58,1.58,0,0,0-1-.3,2.41,2.41,0,0,0-1.47.46,2.15,2.15,0,0,0-.8,1.23c-.19.8.37,1.57,1.67,2.27l.23.13a5.4,5.4,0,0,1,2.23,1.8,3,3,0,0,1,.2,2.19,5.27,5.27,0,0,1-1.9,3,5.49,5.49,0,0,1-3.42,1.13,3.74,3.74,0,0,1-2.56-.8A2.61,2.61,0,0,1,206.14,146.21Z" transform="translate(-2.31 -1.7)"/><path class="cls-2" d="M221.81,148.9l3.2-13.4h2.13l-3.2,13.4Z" transform="translate(-2.31 -1.7)"/><path class="cls-2" d="M227,148.9,230.33,135l6.32,8.19c.17.23.33.46.5.73s.33.57.53.9l2.23-9.28h2l-3.32,13.9-6.46-8.35-.5-.7a3.91,3.91,0,0,1-.4-.79L229,148.87h-2Z" transform="translate(-2.31 -1.7)"/><path class="cls-2" d="M248.66,137.33l-2.76,11.54h-2.13l2.76-11.54h-3.46l.43-1.87h9.05l-.43,1.87Z" transform="translate(-2.31 -1.7)"/><path class="cls-2" d="M251,148.9l3.19-13.4h7.32l-.43,1.86h-5.16l-.8,3.36h5.16l-.47,1.9h-5.16l-1,4.32h5.16l-.47,2Z" transform="translate(-2.31 -1.7)"/><path class="cls-2" d="M264.1,142.88l-1.43,6h-2l3.19-13.41h3a9.33,9.33,0,0,1,2,.17,2.11,2.11,0,0,1,1.09.57,2.24,2.24,0,0,1,.64,1.26,4.33,4.33,0,0,1-.07,1.7,4.92,4.92,0,0,1-1.36,2.52,4.52,4.52,0,0,1-2.5,1.1l3,6.09h-2.4l-2.89-6Zm.53-1.69h.4a4.87,4.87,0,0,0,2.33-.4,2.16,2.16,0,0,0,.89-1.43c.17-.74.1-1.27-.23-1.57a3.31,3.31,0,0,0-2.09-.46h-.4Z" transform="translate(-2.31 -1.7)"/><path class="cls-2" d="M270.92,148.9l3.19-13.4h7.29l-.44,1.86h-5.15l-.8,3.33h5.15l-.46,1.89h-5.16l-1.49,6.29h-2.13Z" transform="translate(-2.31 -1.7)"/><path class="cls-2" d="M288.48,148.9l-.66-3.46h-5.19l-2.33,3.46h-2.23L287.72,135l3,13.94Zm-4.62-5.29h3.62l-.6-3.06a4.49,4.49,0,0,1-.06-.66,5.56,5.56,0,0,1,0-.83,5.92,5.92,0,0,1-.43.83,5.63,5.63,0,0,1-.4.7Z" transform="translate(-2.31 -1.7)"/><path class="cls-2" d="M304.55,138.76a4.26,4.26,0,0,0-1.63-1.17,5,5,0,0,0-2-.4,5.88,5.88,0,0,0-3.83,1.4,6.58,6.58,0,0,0-2.22,3.66,4.33,4.33,0,0,0,.46,3.59,3.34,3.34,0,0,0,3,1.4,6.24,6.24,0,0,0,2.3-.43,9.63,9.63,0,0,0,2.33-1.27l-.6,2.47a7.54,7.54,0,0,1-2.1.93,8.39,8.39,0,0,1-2.26.3,6.68,6.68,0,0,1-2.66-.5,4.66,4.66,0,0,1-1.9-1.5,4.71,4.71,0,0,1-.93-2.26,6.76,6.76,0,0,1,.17-2.8,9.31,9.31,0,0,1,1.16-2.76,8.74,8.74,0,0,1,2-2.26,8.51,8.51,0,0,1,2.6-1.5,8.34,8.34,0,0,1,2.82-.5,6.14,6.14,0,0,1,2.13.34,5.58,5.58,0,0,1,1.77,1Z" transform="translate(-2.31 -1.7)"/><path class="cls-2" d="M304.75,148.9l3.19-13.4h7.29l-.43,1.86h-5.16l-.8,3.36H314l-.47,1.9h-5.15l-1,4.32h5.16l-.46,2Z" transform="translate(-2.31 -1.7)"/><path class="cls-3" d="M266,123.82H251.42l20.29-73.29h14.61Z" transform="translate(-2.31 -1.7)"/><path class="cls-3" d="M258.44,52.83a5.37,5.37,0,0,0-4.69-2.1H173.51l-4,14.37h73l-4.26,15.34H179.9v0H165.29l-12.11,43.74h14.61l8.11-29.34h65.64a9.26,9.26,0,0,0,5.79-2.1,9.7,9.7,0,0,0,3.56-5.19L259,58.18A5.94,5.94,0,0,0,258.44,52.83Z" transform="translate(-2.31 -1.7)"/><path class="cls-3" d="M144.66,119.23a6.72,6.72,0,0,1-6.45,4.92H62.93a5.29,5.29,0,0,1-4.6-2.09,5.78,5.78,0,0,1-.63-5.19L76.07,50.73h14.6l-16.4,59.08h58.42l16.4-59.08h14.6Z" transform="translate(-2.31 -1.7)"/><polygon class="cls-4" points="309.23 48.96 327.69 85.69 288.87 122.42 309.23 48.96"/><polygon class="cls-5" points="296.26 48.96 314.72 85.69 275.86 122.42 296.26 48.96"/></svg>