<svg id="Layer_1" data-name="Layer 1" xmlns="http://www.w3.org/2000/svg" viewBox="0 0 371 196"><defs><style>.cls-1{fill:#fff;stroke:#9e9e9e;stroke-miterlimit:10;}.cls-2{fill:#2394bc;}.cls-3{fill:#efc75e;}</style></defs><title>visa</title><rect class="cls-1" x="0.5" y="0.5" width="370" height="195" rx="24"/><g id="visa"><path class="cls-2" d="M163.54,54.62,149,145.19h23.27l14.54-90.57Zm70.17,36.9c-8.13-4-13.11-6.73-13.11-10.83.1-3.74,4.21-7.56,13.4-7.56a40.62,40.62,0,0,1,17.33,3.35l2.11.94,3.16-18.94a58.58,58.58,0,0,0-20.88-3.74c-23,0-39.15,11.95-39.25,29-.19,12.61,11.58,19.6,20.39,23.8,9,4.3,12.06,7.09,12.06,10.92-.1,5.87-7.27,8.58-14,8.58-9.28,0-14.26-1.4-21.83-4.67L190.06,121,186.8,140.7c5.47,2.43,15.52,4.57,25.95,4.68,24.41,0,40.3-11.77,40.5-30C253.33,105.42,247.12,97.77,233.71,91.52ZM316.24,54.9h-18c-5.54,0-9.76,1.6-12.16,7.29l-34.56,83h24.42l6.72-18H310l3.49,18.05H335Zm-26.81,54.19c.48,0,9.38-29.34,9.38-29.34l7.08,29.34ZM129.54,54.62l-22.79,61.54L104.27,104C100.06,90,86.84,74.81,72.1,67.25L93,145.1h24.61l36.58-90.47H129.54Z" transform="translate(-2.31 -1.7)"/><path class="cls-3" d="M96.6,66.3c-1.77-6.9-7.44-11.56-15.13-11.66H45.37L45,56.32c28.16,6.94,51.79,28.3,59.46,48.39Z" transform="translate(-2.31 -1.7)"/></g></svg>