<svg id="Layer_1" data-name="Layer 1" xmlns="http://www.w3.org/2000/svg" xmlns:xlink="http://www.w3.org/1999/xlink" viewBox="0 0 90.13 87.28"><defs><style>.cls-1{fill:url(#linear-gradient);}.cls-2{fill:#fb0;}</style><linearGradient id="linear-gradient" x1="2.73" y1="43.64" x2="90.13" y2="43.64" gradientUnits="userSpaceOnUse"><stop offset="0" stop-color="#5d5d5d"/><stop offset="1" stop-color="#7d7d7d"/></linearGradient></defs><title>404</title><path class="cls-1" d="M65.56,55.65l18.06-10.5A13,13,0,0,0,88.33,27.3L76.23,6.51A13.06,13.06,0,0,0,58.35,1.78L38.79,13.14l-2.55,5.73,8.43,4.42L65.36,11.2l13.4,23.14-19,11.1S55,47.88,53.11,49.63,48.72,56,48.72,56L37.27,76.05,14.09,62.71h0L27,40.06l-9.23.42-.81-6.35L4.48,55.78h0A13,13,0,0,0,9.32,73.59l20.88,12A13.07,13.07,0,0,0,48.05,80.7L58.78,62a22.35,22.35,0,0,1,2.76-3.84,23.1,23.1,0,0,1,4-2.51Z"/><path class="cls-2" d="M24.88,8.4,20.61,9.91l6.05,10.35Z"/><path class="cls-2" d="M3.88,11,0,19.68l19.23,3.71L3.88,11Z"/></svg>