<svg id="Layer_2" data-name="Layer 2" xmlns="http://www.w3.org/2000/svg" viewBox="0 0 150 150"><defs><style>.cls-1{opacity:0.64;}</style></defs><title>give_measurement_icon</title><g class="cls-1"><path d="M70.38,75H0v40H15V100h5v15H35V100h5v15H50V95C50,85.92,58.47,79.18,70.38,75Z"/><path d="M70.38,75H0v40H15V100h5v15H35V100h5v15H50V95C50,85.92,58.47,79.18,70.38,75Z"/><path d="M102.5,120C83.66,120,64,115.18,55,106.11V130c0,5.74,5.78,10.91,15,14.56V130h5v16.29a87.09,87.09,0,0,0,15,3V135h5v14.73c2.45.16,4.94.27,7.5.27s5-.11,7.5-.27V135h5v14.28a88,88,0,0,0,15-3V130h5v14.56c9.22-3.65,15-8.82,15-14.56V106.11C141,115.18,121.34,120,102.5,120Z"/><path d="M102.5,75C76.26,75,55,84,55,95s21.26,20,47.5,20,47.5-9,47.5-20S128.74,75,102.5,75Zm0,25C92.84,100,85,96.64,85,92.5S92.84,85,102.5,85,120,88.36,120,92.5,112.16,100,102.5,100Z"/></g><path d="M18.84,50a22.6,22.6,0,0,1-8.09-1.43,19.72,19.72,0,0,1-6.54-4A17.08,17.08,0,0,1,0,38.33l11.84-5.95A9.25,9.25,0,0,0,13,35.82a6.41,6.41,0,0,0,2.36,2.35,7,7,0,0,0,3.53.86,6.06,6.06,0,0,0,4.28-1.47,5.16,5.16,0,0,0,1.59-4A6.3,6.3,0,0,0,24,30.4a5.78,5.78,0,0,0-2.13-2.15,6,6,0,0,0-3-.77,6.05,6.05,0,0,0-2.3.41V19.6h2.63a4,4,0,0,0,2.27-.7,5.18,5.18,0,0,0,1.69-1.82,4.71,4.71,0,0,0,.65-2.38,3.91,3.91,0,0,0-.67-2.21,4.7,4.7,0,0,0-1.83-1.58,5.76,5.76,0,0,0-2.64-.58,6.54,6.54,0,0,0-2.8.61,6.31,6.31,0,0,0-2.23,1.74,6.87,6.87,0,0,0-1.33,2.66l-10-5A14.36,14.36,0,0,1,5.79,4.87a16.81,16.81,0,0,1,5.76-3.56A20.82,20.82,0,0,1,18.84.06a19.06,19.06,0,0,1,8.55,1.85A14.51,14.51,0,0,1,33.24,7a13.34,13.34,0,0,1,2.12,7.45A13.23,13.23,0,0,1,35,17.63a11.17,11.17,0,0,1-1.09,2.78A12.13,12.13,0,0,1,32,22.87a14.12,14.12,0,0,1,3.08,3,12,12,0,0,1,1.81,3.56,14.35,14.35,0,0,1,.59,4.2A15,15,0,0,1,35.09,42a16.73,16.73,0,0,1-6.63,5.83A21,21,0,0,1,18.84,50Z"/><path d="M40.58,49.07V42.36q5-3.73,8.85-7t6.7-5.9a51.7,51.7,0,0,0,4.65-5,21.8,21.8,0,0,0,2.71-4.19,8.34,8.34,0,0,0,.89-3.5,5.5,5.5,0,0,0-.7-2.74,5.45,5.45,0,0,0-1.92-2,5.24,5.24,0,0,0-2.83-.76,5.14,5.14,0,0,0-2.72.77,8.58,8.58,0,0,0-2.43,2.48,30.23,30.23,0,0,0-2.47,4.51L40.69,13.77a25.9,25.9,0,0,1,3.13-5.95,18.43,18.43,0,0,1,4.24-4.3A17.74,17.74,0,0,1,53.4.89,21.83,21.83,0,0,1,59.74,0a21,21,0,0,1,9.64,2.12,16.09,16.09,0,0,1,6.49,5.82,15.45,15.45,0,0,1,2.34,8.45,17.76,17.76,0,0,1-.6,4.57,19.69,19.69,0,0,1-1.79,4.43,26.05,26.05,0,0,1-3,4.28,37,37,0,0,1-4.16,4.14,53.2,53.2,0,0,1-5.35,4H79.08V49.07Z"/><path d="M89.06,24.18l-3.15-2.59a10.4,10.4,0,0,0,1.82-2.16,22.88,22.88,0,0,0,1.75-3.11,12.45,12.45,0,0,0,1-2.87,7.12,7.12,0,0,1-3.79-2.39,6.47,6.47,0,0,1-1.37-4.18,6.55,6.55,0,0,1,2-4.93A7.1,7.1,0,0,1,92.41.06a6.63,6.63,0,0,1,5,2,7.46,7.46,0,0,1,1.87,5.35,16.09,16.09,0,0,1-2.67,8.37A34,34,0,0,1,89.06,24.18Zm17,0-3.15-2.59a10.4,10.4,0,0,0,1.82-2.16,22.88,22.88,0,0,0,1.75-3.11,12.45,12.45,0,0,0,1-2.87,7.12,7.12,0,0,1-3.79-2.39,6.47,6.47,0,0,1-1.38-4.18,6.56,6.56,0,0,1,2-4.93A7.1,7.1,0,0,1,109.36.06a6.65,6.65,0,0,1,5,2,7.46,7.46,0,0,1,1.87,5.35,16.09,16.09,0,0,1-2.67,8.37A34.18,34.18,0,0,1,106,24.18Z"/></svg>