<svg id="Layer_3" data-name="Layer 3" xmlns="http://www.w3.org/2000/svg" viewBox="0 0 150 150"><defs><style>.cls-1{opacity:0.64;}</style></defs><title>sizing_assistant_icon</title><g class="cls-1"><path d="M70.38,75H0v40H15V100h5v15H35V100h5v15H50V95C50,85.92,58.47,79.18,70.38,75Z" transform="translate(0)"/><path d="M70.38,75H0v40H15V100h5v15H35V100h5v15H50V95C50,85.92,58.47,79.18,70.38,75Z" transform="translate(0)"/><path d="M102.5,120C83.66,120,64,115.18,55,106.11V130c0,5.74,5.78,10.91,15,14.56V130h5v16.29a87.09,87.09,0,0,0,15,3V135h5v14.73c2.45.16,4.94.27,7.5.27s5-.11,7.5-.27V135h5v14.28a88,88,0,0,0,15-3V130h5v14.56c9.22-3.65,15-8.82,15-14.56V106.11C141,115.18,121.34,120,102.5,120Z" transform="translate(0)"/><path d="M102.5,75C76.26,75,55,84,55,95s21.26,20,47.5,20,47.5-9,47.5-20S128.74,75,102.5,75Zm0,25C92.84,100,85,96.64,85,92.5S92.84,85,102.5,85,120,88.36,120,92.5,112.16,100,102.5,100Z" transform="translate(0)"/></g><path d="M18.58,10.28l7.14,4-4-7.14,4-7.14L18.58,4,11.43,0l4,7.14-4,7.14Zm34.28,28-7.14-4,4,7.14-4,7.15,7.14-4,7.14,4-4-7.15,4-7.14ZM60,0,52.86,4,45.72,0l4,7.14-4,7.14,7.14-4,7.14,4L56,7.14ZM38.2,15.11a2.85,2.85,0,0,0-4,0L.84,48.45a2.84,2.84,0,0,0,0,4l6.68,6.68a2.84,2.84,0,0,0,4,0L44.86,25.85a2.84,2.84,0,0,0,0-4ZM35.26,30.8,29.2,24.74l7-7,6.06,6.06Z" transform="translate(0)"/></svg>