<svg xmlns="http://www.w3.org/2000/svg" viewBox="0 0 421.1 64"><defs><style>.cls-1{fill:#ec848d;}.cls-2{fill:#212121;opacity:0.1;}.cls-3{fill:#f2aaad;}.cls-4{fill:#fff;}</style></defs><title>yourstore_2021_white</title><g id="Y_Canopy" data-name="Y Canopy"><g id="Layer_2" data-name="Layer 2"><polygon class="cls-1" points="80 0 48 20.57 64.84 43.43 80 64 80 0"/></g><g id="Layer_4" data-name="Layer 4"><polygon class="cls-1" points="32 4.57 0 25.14 15.06 43.43 32 64 32 4.57"/><polygon class="cls-2" points="32 4.57 0 25.14 32 43.43 32 4.57"/></g><g id="Layer_3" data-name="Layer 3"><polygon class="cls-3" points="48 20.57 0 25.14 32 4.57 80 0 48 20.57"/></g></g><g id="white_text"><path class="cls-4" d="M133.27,70.24h-9.58L132,51.09,118.29,21.28h10.37l10.65,26.35-4.6-.14,10.44-26.21h9.72Z" transform="translate(-9.45 -8)"/><path class="cls-4" d="M159.22,28.77a16.61,16.61,0,0,1,6.55-6.05,21.53,21.53,0,0,1,18.8,0,16.61,16.61,0,0,1,6.55,6.05,16.81,16.81,0,0,1,2.41,9.07,16.9,16.9,0,0,1-2.41,9A16.54,16.54,0,0,1,184.57,53a21.53,21.53,0,0,1-18.8,0,16.54,16.54,0,0,1-6.55-6.08,16.9,16.9,0,0,1-2.41-9A16.81,16.81,0,0,1,159.22,28.77Zm8.28,14a8.76,8.76,0,0,0,15.34,0A9.94,9.94,0,0,0,184,37.84a10.18,10.18,0,0,0-1.19-5,8.32,8.32,0,0,0-3.21-3.31,9.22,9.22,0,0,0-8.92,0,8.32,8.32,0,0,0-3.21,3.31,10.18,10.18,0,0,0-1.19,5A9.94,9.94,0,0,0,167.5,42.77Z" transform="translate(-9.45 -8)"/><path class="cls-4" d="M212.54,46.44a4.81,4.81,0,0,0,4.17,1.77,7.08,7.08,0,0,0,3.5-.83,5.82,5.82,0,0,0,2.3-2.34,7.42,7.42,0,0,0,.83-3.6V21.28h9.28V54.4h-9.28v-5a10.65,10.65,0,0,1-10,5.76q-5.91,0-8.82-3.38t-2.92-9.29V21.28h9.65V41.44A8.27,8.27,0,0,0,212.54,46.44Z" transform="translate(-9.45 -8)"/><path class="cls-4" d="M252.06,54.4h-9.14V21.28h9.14Zm7.82-24.73a5.61,5.61,0,0,0-2.42-.47,4.69,4.69,0,0,0-2.95.94,5.58,5.58,0,0,0-1.83,2.62,12,12,0,0,0-.62,4.07l-2.59-2.59a15.75,15.75,0,0,1,1.51-7,13.52,13.52,0,0,1,4-4.9,8.37,8.37,0,0,1,5-1.83,9,9,0,0,1,3.42.65A6.15,6.15,0,0,1,266,23.08L261.78,31A7.73,7.73,0,0,0,259.88,29.67Z" transform="translate(-9.45 -8)"/><path class="cls-4" d="M277.62,46.08A16,16,0,0,0,281,47.85a9.23,9.23,0,0,0,3.06.57A4.43,4.43,0,0,0,287,47.6a2.77,2.77,0,0,0,1-2.27,3.13,3.13,0,0,0-.82-2.2,7.49,7.49,0,0,0-2.42-1.62,39.06,39.06,0,0,0-4-1.51,34.58,34.58,0,0,1-4.46-2,10.57,10.57,0,0,1-3.57-3.17,8.61,8.61,0,0,1-1.4-5.08,8,8,0,0,1,1.58-5,9.74,9.74,0,0,1,4.29-3.1,16.66,16.66,0,0,1,6-1,18.5,18.5,0,0,1,5.25.72A21.2,21.2,0,0,1,293,23.19,16.84,16.84,0,0,1,296.63,26l-4.1,5.76a14.59,14.59,0,0,0-4.28-3.17,11.06,11.06,0,0,0-4.87-1.22,4.35,4.35,0,0,0-2.48.61,2.08,2.08,0,0,0-.9,1.84,2.51,2.51,0,0,0,.9,1.9,7.89,7.89,0,0,0,2.59,1.48c1.13.43,2.41,1,3.85,1.58A38.82,38.82,0,0,1,292.28,37a11.14,11.14,0,0,1,3.63,3.13,8.13,8.13,0,0,1,1.37,4.9A9.64,9.64,0,0,1,294,52.78q-3.24,2.78-8.93,2.77a21.09,21.09,0,0,1-6.44-.93,21.45,21.45,0,0,1-5.26-2.49,29.64,29.64,0,0,1-4.21-3.35L273.74,43A29.74,29.74,0,0,0,277.62,46.08Z" transform="translate(-9.45 -8)"/><path class="cls-4" d="M321,21.28v7.85H300.52V21.28ZM315.21,9.76V54.4h-9V9.76Z" transform="translate(-9.45 -8)"/><path class="cls-4" d="M327.2,28.77a16.55,16.55,0,0,1,6.55-6.05,21.51,21.51,0,0,1,18.79,0,16.61,16.61,0,0,1,6.55,6.05,16.81,16.81,0,0,1,2.41,9.07,16.9,16.9,0,0,1-2.41,9A16.54,16.54,0,0,1,352.54,53a21.51,21.51,0,0,1-18.79,0,16.48,16.48,0,0,1-6.55-6.08,16.91,16.91,0,0,1-2.42-9A16.82,16.82,0,0,1,327.2,28.77Zm8.28,14a8.74,8.74,0,0,0,15.33,0A9.94,9.94,0,0,0,352,37.84a10.18,10.18,0,0,0-1.19-5,8.36,8.36,0,0,0-3.2-3.31,9.24,9.24,0,0,0-8.93,0,8.3,8.3,0,0,0-3.2,3.31,10.07,10.07,0,0,0-1.19,5A9.83,9.83,0,0,0,335.48,42.77Z" transform="translate(-9.45 -8)"/><path class="cls-4" d="M378.71,54.4h-9.14V21.28h9.14Zm7.81-24.73a5.57,5.57,0,0,0-2.41-.47,4.67,4.67,0,0,0-2.95.94,5.59,5.59,0,0,0-1.84,2.62,12,12,0,0,0-.61,4.07l-2.59-2.59a15.62,15.62,0,0,1,1.51-7,13.52,13.52,0,0,1,4-4.9,8.32,8.32,0,0,1,5-1.83,9,9,0,0,1,3.42.65,6.21,6.21,0,0,1,2.63,1.94L388.43,31A7.6,7.6,0,0,0,386.52,29.67Z" transform="translate(-9.45 -8)"/><path class="cls-4" d="M403.84,53a15.29,15.29,0,0,1-6.23-6,18.15,18.15,0,0,1-2.2-9.11,18.29,18.29,0,0,1,2.2-9.18,15.1,15.1,0,0,1,6.23-6,22.65,22.65,0,0,1,18.83-.14,13.47,13.47,0,0,1,5.86,5.76,19.06,19.06,0,0,1,2,9.11c0,.43,0,.89,0,1.37s-.06.86-.1,1.15H400.74V34.17h21.53l-2.52,3.31a5.17,5.17,0,0,0,.54-1.19,4,4,0,0,0,.25-1.26,8.92,8.92,0,0,0-.9-4.17,6.8,6.8,0,0,0-2.55-2.74,7.37,7.37,0,0,0-3.89-1,8.24,8.24,0,0,0-4.57,1.19,7.43,7.43,0,0,0-2.81,3.53,16,16,0,0,0-1.05,5.79,14.43,14.43,0,0,0,1,5.62,7.45,7.45,0,0,0,2.91,3.53A8.68,8.68,0,0,0,413.34,48a10.85,10.85,0,0,0,5.29-1.19,9.54,9.54,0,0,0,3.64-3.56l8.14,2.52a17.31,17.31,0,0,1-6.88,7,21.13,21.13,0,0,1-10.26,2.34A19.68,19.68,0,0,1,403.84,53Z" transform="translate(-9.45 -8)"/></g></svg>