<svg id="Layer_1" data-name="Layer 1" xmlns="http://www.w3.org/2000/svg" viewBox="0 0 512 512"><defs><style>.cls-1{fill:#fff;}.cls-2{fill:#518df7;}.cls-3{fill:#28b346;}.cls-4{fill:#7daaf9;}.cls-5{fill:#83aef9;}.cls-6{fill:#679bf8;}.cls-7{fill:#6fa1f8;}.cls-8{fill:#80d292;}.cls-9{fill:#a9e0b4;}.cls-10{fill:#71cd85;}.cls-11{fill:#8dd79c;}.cls-12{fill:#97daa5;}.cls-13{fill:#f04336;}.cls-14{fill:#faba00;}</style></defs><title>google-logo</title><circle class="cls-1" cx="256" cy="256" r="256"/><path class="cls-2" d="M312.39,347.7c9.5-6.12,18.38-13,25.81-21.61a106.76,106.76,0,0,0,18.11-29.53c1.24-3-.85-2.33-2.28-2.33q-24.6,0-49.19,0c-12.53,0-25.06,0-37.58,0-2.48,0-3.6-.38-3.58-3.29.13-20.94.1-41.89,0-62.84,0-2.33.59-3.12,3-3.12q81.13.1,162.28,0c2.15,0,3,.63,3.2,2.83.48,4.86,1.26,9.68,1.91,14.52.09.65-.12,1.4.69,1.76v4.11c-.74,1.28-.17,2.68-.35,4,.16,1.16-.36,2.39.35,3.49v4.79c-.71,1.1-.19,2.33-.35,3.49.18,1.34-.39,2.74.35,4v4.1c-.76,4.57-.6,9.24-1.38,13.81a176,176,0,0,1-39.73,85.65A211,211,0,0,1,372.19,393a4.16,4.16,0,0,1-2.68,1.35c-4.61-1.47-7.63-5.22-11.18-8.11q-21.9-17.82-43.71-35.75C313.68,349.73,312.41,349.2,312.39,347.7Z"/><path class="cls-3" d="M312.39,347.7,369.26,394c.05,1.34-.93,2-1.81,2.7a175.22,175.22,0,0,1-54.64,28.71,167.46,167.46,0,0,1-38.65,7.33h-3.42c-.84-.67-1.82-.22-2.73-.35h-1.88c-.74.1-1.56-.27-2.23.35H253c-.76-.65-1.66-.23-2.49-.35-.56,0-1.16-.15-1.62.35h-3.41c-1.69-1.44-3.83-1-5.76-1.25A175.2,175.2,0,0,1,107,343c-.44-.79-.81-1.62-1.21-2.43,1.2-3.33,4.43-4.69,6.87-6.7,15.06-12.42,30.22-24.71,45.29-37.1,1.25-1,2.34-2.59,4.34-2.33,5.7,13.92,13.45,26.53,24.26,37.1,17.16,16.78,37.61,26.76,61.52,29.47a103,103,0,0,0,62.48-12.45C311.15,348.26,311.77,348,312.39,347.7Z"/><path class="cls-4" d="M434.15,252.31c.22-1.36-.61-2.89.66-4.08v4.1C434.58,252.65,434.36,252.62,434.15,252.31Z"/><path class="cls-5" d="M434.81,268.05c-1.28-1.19-.45-2.72-.65-4.09.21-.31.42-.34.65,0Z"/><path class="cls-6" d="M434.15,252.31l.66,0v3.41C433.68,254.77,434.28,253.47,434.15,252.31Z"/><path class="cls-7" d="M434.81,264h-.65c.11-1.16-.48-2.46.65-3.43Z"/><path class="cls-8" d="M250.21,432.16c1,0,2-.44,2.76.6h-2.74c-.22-.13-.29-.26-.23-.39S250.14,432.16,250.21,432.16Z"/><path class="cls-9" d="M268,432.19c.92.07,2-.66,2.7.57H268c-.23-.14-.31-.27-.22-.39S268,432.19,268,432.19Z"/><path class="cls-10" d="M263.9,432.76c.52-.83,1.32-.67,2.09-.59.2.14.26.28.18.4s-.14.19-.22.19Z"/><path class="cls-11" d="M266,432.76c0-.2,0-.39,0-.59l2.05,0a5.44,5.44,0,0,0,0,.57Z"/><path class="cls-12" d="M250.21,432.16c0,.2,0,.4,0,.6h-1.37C249.09,432.06,249.64,432.1,250.21,432.16Z"/><path class="cls-13" d="M104.47,177.62a157.88,157.88,0,0,1,23.88-35.19c22.81-25.83,50.78-43.64,84-53,36.17-10.17,72.05-8.7,107.38,4a172.91,172.91,0,0,1,50,28.25c1.54,1.24,1.47,1.76,0,2.94q-26.61,21.69-53.11,43.53c-1.65,1.36-2.71.88-4.15,0A100.57,100.57,0,0,0,256,154c-31,1.37-56.51,14.2-76.56,37.88-8,9.5-13.57,20.41-18.16,31.86-2.8-.07-4.35-2.29-6.21-3.82-16.23-13.33-32.57-26.52-48.75-39.92C105.53,179.31,104.66,178.74,104.47,177.62Z"/><path class="cls-14" d="M104.47,177.62q19,15.45,38,30.9c6.26,5.08,12.53,10.12,18.79,15.18-3.8,12.8-6.05,25.78-5.36,39.21.55,10.86,3,21.29,6.37,31.56l-56.5,46.13A164,164,0,0,1,87,285.41,173.32,173.32,0,0,1,103.56,179,16.12,16.12,0,0,1,104.47,177.62Z"/></svg>